<svg width="211" height="100" viewBox="0 0 211 100" fill="none" xmlns="http://www.w3.org/2000/svg">
<path d="M80.6434 16.5821V22.0351H88.5107V23.9681H80.6434V30.2961H78.4014V14.6288H89.4686V16.5821H80.6434Z" fill="white"/>
<path d="M92.6279 14.6301H94.8699V30.2975H92.6279V14.6301Z" fill="white"/>
<path d="M113.07 14.6301V30.2975H111.235L101.819 18.6182V30.2975H99.5771V14.6301H101.412L110.828 26.3094V14.6301H113.07Z" fill="white"/>
<path d="M116.494 22.4638C116.494 17.8857 120.041 14.447 124.851 14.447C129.62 14.447 133.166 17.845 133.166 22.4638C133.166 27.0623 129.62 30.4806 124.851 30.4806C120.041 30.4603 116.494 27.0419 116.494 22.4638ZM130.924 22.4638C130.924 19.0048 128.316 16.441 124.851 16.441C121.325 16.441 118.736 18.9844 118.736 22.4638C118.736 25.9228 121.345 28.4866 124.851 28.4866C128.316 28.4663 130.924 25.9228 130.924 22.4638Z" fill="white"/>
<path d="M136.591 14.6301H138.833V28.3442H147.332V30.2975H136.591V14.6301Z" fill="white"/>
<path d="M148.332 22.4638C148.332 17.8857 151.878 14.447 156.689 14.447C161.458 14.447 165.004 17.845 165.004 22.4638C165.004 27.0623 161.458 30.4806 156.689 30.4806C151.878 30.4603 148.332 27.0419 148.332 22.4638ZM162.762 22.4638C162.762 19.0048 160.153 16.441 156.689 16.441C153.162 16.441 150.574 18.9844 150.574 22.4638C150.574 25.9228 153.183 28.4866 156.689 28.4866C160.174 28.4663 162.762 25.9228 162.762 22.4638Z" fill="white"/>
<path d="M179.291 22.3621H181.452V28.4662C179.882 29.7888 177.701 30.4603 175.521 30.4603C170.71 30.4603 167.164 27.0826 167.164 22.4435C167.164 17.8043 170.71 14.4267 175.561 14.4267C178.048 14.4267 180.147 15.2609 181.594 16.848L180.208 18.2316C178.904 16.9701 177.436 16.4207 175.663 16.4207C172.035 16.4207 169.406 18.9438 169.406 22.4435C169.406 25.8821 172.035 28.4662 175.643 28.4662C176.968 28.4662 178.191 28.1814 179.312 27.4692V22.3621H179.291Z" fill="white"/>
<path d="M191.745 24.8648V30.2772H189.523V24.8241L183.286 14.6301H185.691L190.705 22.8911L195.739 14.6301H197.961L191.745 24.8648Z" fill="white"/>
<path d="M202.485 19.7576V16.3597H203.932C204.299 16.3597 204.564 16.4004 204.727 16.4614C204.89 16.5224 205.033 16.6242 205.115 16.787C205.196 16.9497 205.257 17.1125 205.257 17.316C205.257 17.5805 205.176 17.784 205.033 17.9467C204.89 18.1095 204.666 18.2112 204.36 18.2519C204.503 18.3333 204.625 18.4351 204.727 18.5368C204.829 18.6385 204.952 18.8217 205.115 19.0862L205.522 19.7576H204.707L204.218 19.0251C204.034 18.7606 203.912 18.5978 203.851 18.5165C203.79 18.4554 203.708 18.3944 203.647 18.374C203.566 18.3537 203.464 18.3333 203.301 18.3333H203.158V19.7576H202.485ZM203.178 17.784H203.688C204.014 17.784 204.218 17.7636 204.299 17.7433C204.381 17.7229 204.442 17.6619 204.483 17.6008C204.524 17.5398 204.544 17.4381 204.544 17.3363C204.544 17.2142 204.503 17.1329 204.442 17.0515C204.381 16.9701 204.299 16.9294 204.177 16.909C204.116 16.909 203.953 16.8887 203.668 16.8887H203.138V17.784H203.178Z" fill="white"/>
<path d="M1.13477 67.7771C1.13477 49.3222 15.6465 35.7912 35.376 35.7912C55.1054 35.7912 69.6172 49.3222 69.6172 67.7771C69.6172 86.232 55.1054 99.7629 35.376 99.7629C15.6465 99.7629 1.13477 86.232 1.13477 67.7771ZM52.0074 67.7771C52.0074 57.1558 44.7108 50.1971 35.376 50.1971C26.0412 50.1971 18.7445 57.1355 18.7445 67.7771C18.7445 78.3983 26.0412 85.3571 35.376 85.3571C44.7108 85.3571 52.0074 78.4187 52.0074 67.7771Z" fill="white"/>
<path d="M137.366 37.0324V98.5217H123.017L95.8279 65.7627V98.5217H78.748V37.0324H93.0968L120.286 69.7915V37.0324H137.366Z" fill="white"/>
<path d="M199.143 85.0926V98.5421H149.677V37.0324H197.981V50.4819H166.92V60.8387H194.292V73.8406H166.92V85.0926H199.143Z" fill="white"/>
<path d="M5.47559 30.7655L32.8482 1.24167C34.2546 -0.264018 36.6596 -0.243669 38.0456 1.28237L64.501 30.562L5.47559 30.7655Z" fill="#01FF66"/>
<path d="M203.749 22.0365C205.843 22.0365 207.54 20.3421 207.54 18.2519C207.54 16.1618 205.843 14.4674 203.749 14.4674C201.655 14.4674 199.958 16.1618 199.958 18.2519C199.958 20.3421 201.655 22.0365 203.749 22.0365Z" stroke="white" stroke-miterlimit="10"/>
</svg>
