<?xml version="1.0" encoding="iso-8859-1"?>
<!-- Generator: Adobe Illustrator 16.0.0, SVG Export Plug-In . SVG Version: 6.00 Build 0)  -->
<!DOCTYPE svg PUBLIC "-//W3C//DTD SVG 1.1//EN" "http://www.w3.org/Graphics/SVG/1.1/DTD/svg11.dtd">
<svg version="1.1" id="Layer_1" xmlns="http://www.w3.org/2000/svg" xmlns:xlink="http://www.w3.org/1999/xlink" x="0px" y="0px"
	 width="426px" height="95px" viewBox="0 0 426 95" style="enable-background:new 0 0 426 95;" xml:space="preserve">
<g>
	<path style="fill:#FFF753;" d="M48.255,3.245c2.415,0,4.813,0.197,7.196,0.589c2.383,0.393,4.717,0.976,7.005,1.751
		c2.287,0.775,4.495,1.73,6.626,2.867c2.131,1.136,4.155,2.438,6.072,3.906c1.917,1.467,3.703,3.081,5.355,4.841
		c1.655,1.76,3.153,3.642,4.498,5.648c1.346,2.005,2.519,4.106,3.52,6.305c1.001,2.197,1.817,4.461,2.447,6.792l-21.36,5.778
		c-0.313-1.166-0.723-2.298-1.223-3.397c-0.501-1.099-1.088-2.149-1.76-3.152c-0.673-1.002-1.422-1.943-2.249-2.824
		c-0.826-0.88-1.719-1.687-2.678-2.421c-0.959-0.733-1.971-1.384-3.036-1.952c-1.065-0.568-2.17-1.046-3.313-1.434
		c-1.144-0.387-2.311-0.679-3.502-0.876c-1.192-0.196-2.391-0.294-3.599-0.294V3.245z"/>
	<path style="fill:#B1ED67;" d="M90.345,33.824c0.745,2.297,1.299,4.639,1.662,7.026c0.363,2.387,0.529,4.788,0.5,7.202
		c-0.031,2.415-0.257,4.811-0.68,7.188c-0.422,2.377-1.035,4.705-1.838,6.981c-0.804,2.278-1.786,4.475-2.949,6.591
		s-2.49,4.124-3.982,6.022c-1.491,1.898-3.127,3.665-4.908,5.296s-3.682,3.106-5.703,4.427l-12.096-18.53
		c1.011-0.659,1.961-1.396,2.852-2.213c0.891-0.815,1.709-1.697,2.454-2.648c0.746-0.948,1.409-1.952,1.991-3.011
		c0.581-1.058,1.073-2.157,1.475-3.295c0.401-1.139,0.709-2.303,0.92-3.49c0.211-1.189,0.324-2.386,0.339-3.595
		c0.016-1.207-0.068-2.408-0.25-3.601c-0.181-1.194-0.458-2.365-0.831-3.513L90.345,33.824z"/>
	<path style="fill:#6BDC85;" d="M74.268,83.303c-1.953,1.419-4.01,2.672-6.168,3.753c-2.158,1.083-4.39,1.982-6.696,2.702
		c-2.306,0.716-4.654,1.241-7.046,1.574c-2.392,0.334-4.794,0.47-7.209,0.409c-2.414-0.061-4.807-0.316-7.179-0.769
		c-2.372-0.452-4.691-1.094-6.958-1.926c-2.267-0.833-4.451-1.843-6.553-3.032c-2.102-1.188-4.093-2.54-5.973-4.057l13.885-17.229
		c0.94,0.757,1.935,1.433,2.986,2.028c1.051,0.594,2.144,1.1,3.276,1.516c1.134,0.416,2.293,0.736,3.479,0.963
		c1.186,0.227,2.383,0.354,3.59,0.385c1.207,0.03,2.408-0.038,3.604-0.205c1.195-0.166,2.37-0.43,3.523-0.787
		c1.152-0.359,2.268-0.81,3.348-1.351c1.078-0.542,2.107-1.168,3.084-1.876L74.268,83.303z"/>
	<path style="fill:#2AC69D;" d="M22.243,83.303c-1.954-1.419-3.779-2.988-5.476-4.706c-1.696-1.719-3.242-3.563-4.637-5.534
		c-1.395-1.971-2.62-4.042-3.676-6.214c-1.055-2.172-1.927-4.415-2.615-6.729c-0.689-2.315-1.185-4.669-1.488-7.065
		c-0.303-2.396-0.41-4.8-0.319-7.213c0.091-2.413,0.377-4.802,0.859-7.169c0.482-2.366,1.152-4.677,2.012-6.934l20.677,7.881
		c-0.43,1.128-0.765,2.284-1.006,3.468c-0.241,1.182-0.384,2.378-0.429,3.584c-0.045,1.207,0.008,2.409,0.16,3.607
		c0.151,1.197,0.399,2.375,0.744,3.531c0.345,1.159,0.78,2.28,1.308,3.366s1.14,2.121,1.838,3.106
		c0.697,0.985,1.471,1.908,2.319,2.768c0.849,0.858,1.761,1.644,2.738,2.354L22.243,83.303z"/>
	<path style="fill:#00ADA9;" d="M6.167,33.824c0.717-2.208,1.603-4.347,2.658-6.416s2.264-4.043,3.629-5.921
		c1.365-1.878,2.869-3.639,4.51-5.28c1.642-1.642,3.402-3.145,5.281-4.511c1.878-1.364,3.853-2.573,5.921-3.628
		c2.069-1.054,4.207-1.939,6.416-2.658c2.208-0.717,4.459-1.257,6.752-1.621c2.293-0.362,4.601-0.544,6.922-0.544l-0.002,22.127
		c-1.161,0-2.315,0.091-3.461,0.273c-1.146,0.181-2.272,0.452-3.376,0.811c-1.104,0.358-2.173,0.801-3.207,1.328
		c-1.035,0.527-2.021,1.133-2.961,1.815c-0.938,0.682-1.818,1.434-2.64,2.254c-0.82,0.821-1.572,1.701-2.255,2.641
		c-0.682,0.939-1.287,1.926-1.814,2.959c-0.527,1.035-0.97,2.104-1.328,3.208L6.167,33.824z"/>
</g>
<g>
	<rect x="97.621" y="10.272" style="fill:none;" width="353.654" height="54.931"/>
	<path d="M103.891,12.723h24.966v3.534h-21.033V31.59h18.753v3.534h-18.753v17.442h-3.933V12.723z"/>
	<path d="M135.811,12.723h3.933v39.843h-3.933V12.723z"/>
	<path d="M181.182,12.723h3.876v39.843h-4.161l-24.681-33.745v33.745h-3.933V12.723h4.161l24.738,33.744V12.723z"/>
	<path d="M225.043,15.088c3.172,1.805,5.689,4.247,7.553,7.325c1.861,3.078,2.793,6.46,2.793,10.146
		c0,3.686-0.932,7.087-2.793,10.203c-1.863,3.117-4.381,5.586-7.553,7.41c-3.174,1.824-6.66,2.736-10.459,2.736
		c-3.801,0-7.288-0.912-10.46-2.736s-5.691-4.293-7.552-7.41c-1.862-3.115-2.793-6.517-2.793-10.203
		c0-3.686,0.931-7.068,2.793-10.146c1.861-3.078,4.379-5.52,7.552-7.325c3.173-1.804,6.66-2.708,10.46-2.708
		C218.383,12.381,221.869,13.284,225.043,15.088z M206.204,18.138c-2.584,1.482-4.636,3.497-6.156,6.042
		c-1.521,2.546-2.28,5.339-2.28,8.379c0,3.041,0.76,5.852,2.28,8.436c1.52,2.584,3.571,4.626,6.156,6.127
		c2.584,1.501,5.396,2.251,8.437,2.251c3.001,0,5.785-0.75,8.35-2.251c2.565-1.501,4.607-3.543,6.128-6.127
		c1.52-2.584,2.28-5.396,2.28-8.436c0-3.04-0.761-5.833-2.28-8.379c-1.521-2.545-3.563-4.56-6.128-6.042
		c-2.564-1.482-5.349-2.223-8.35-2.223C211.6,15.915,208.788,16.656,206.204,18.138z"/>
	<path d="M244.053,12.723h3.933v36.308h17.556v3.535h-21.488V12.723z"/>
	<path d="M300.681,15.088c3.173,1.805,5.69,4.247,7.553,7.325c1.861,3.078,2.793,6.46,2.793,10.146
		c0,3.686-0.932,7.087-2.793,10.203c-1.862,3.117-4.38,5.586-7.553,7.41s-6.66,2.736-10.459,2.736c-3.801,0-7.287-0.912-10.46-2.736
		s-5.69-4.293-7.553-7.41c-1.862-3.115-2.793-6.517-2.793-10.203c0-3.686,0.931-7.068,2.793-10.146
		c1.862-3.078,4.38-5.52,7.553-7.325c3.173-1.804,6.659-2.708,10.46-2.708C294.021,12.381,297.508,13.284,300.681,15.088z
		 M281.843,18.138c-2.585,1.482-4.637,3.497-6.156,6.042c-1.521,2.546-2.28,5.339-2.28,8.379c0,3.041,0.76,5.852,2.28,8.436
		c1.52,2.584,3.571,4.626,6.156,6.127c2.583,1.501,5.396,2.251,8.436,2.251c3.002,0,5.785-0.75,8.351-2.251
		c2.565-1.501,4.607-3.543,6.128-6.127c1.519-2.584,2.279-5.396,2.279-8.436c0-3.04-0.761-5.833-2.279-8.379
		c-1.521-2.545-3.563-4.56-6.128-6.042c-2.565-1.482-5.349-2.223-8.351-2.223C287.238,15.915,284.426,16.656,281.843,18.138z"/>
	<path d="M346.879,33.072h3.478v14.592c-1.938,1.635-4.189,2.916-6.755,3.848s-5.178,1.396-7.838,1.396
		c-3.762,0-7.229-0.912-10.402-2.736s-5.69-4.293-7.553-7.41c-1.862-3.115-2.793-6.517-2.793-10.203
		c0-3.686,0.931-7.068,2.793-10.146c1.862-3.078,4.398-5.52,7.61-7.325c3.21-1.804,6.716-2.708,10.517-2.708
		c2.697,0,5.31,0.476,7.837,1.425c2.526,0.95,4.76,2.28,6.697,3.99l-2.279,2.793c-1.635-1.52-3.516-2.688-5.644-3.505
		c-2.128-0.817-4.332-1.226-6.611-1.226c-3.078,0-5.91,0.751-8.493,2.251c-2.585,1.501-4.637,3.525-6.156,6.07
		c-1.521,2.546-2.28,5.339-2.28,8.379c0,3.078,0.76,5.899,2.28,8.464c1.52,2.565,3.581,4.598,6.185,6.099
		c2.603,1.501,5.443,2.251,8.521,2.251c1.899,0,3.79-0.313,5.671-0.94c1.882-0.627,3.62-1.511,5.216-2.651V33.072z"/>
	<path d="M390.769,12.723l-15.333,25.65v14.193h-3.934V38.373l-15.561-25.65h4.104l13.452,21.432l13.167-21.432H390.769z"/>
	<path d="M408.938,12.201c1.717,1.008,3.074,2.376,4.071,4.104s1.495,3.611,1.495,5.649c0,2.016-0.498,3.894-1.495,5.633
		s-2.359,3.124-4.088,4.154c-1.728,1.03-3.634,1.545-5.716,1.545c-2.06,0-3.949-0.509-5.665-1.528
		c-1.718-1.019-3.069-2.393-4.055-4.121c-0.986-1.728-1.479-3.6-1.479-5.616c0-2.016,0.498-3.893,1.495-5.633
		c0.997-1.739,2.354-3.124,4.071-4.154c1.716-1.03,3.616-1.545,5.698-1.545C405.333,10.689,407.222,11.193,408.938,12.201z
		 M407.709,29.598c1.362-0.797,2.438-1.872,3.224-3.223c0.786-1.351,1.18-2.825,1.18-4.42s-0.388-3.063-1.163-4.403
		c-0.775-1.34-1.839-2.403-3.19-3.19c-1.352-0.786-2.847-1.18-4.486-1.18s-3.135,0.399-4.485,1.196
		c-1.352,0.797-2.421,1.873-3.207,3.224c-0.787,1.352-1.18,2.824-1.18,4.419s0.387,3.063,1.163,4.403
		c0.775,1.34,1.833,2.404,3.174,3.19c1.34,0.787,2.829,1.18,4.469,1.18S406.347,30.396,407.709,29.598z M407.493,22.104
		c-0.354,0.587-0.864,1.036-1.528,1.346l2.359,3.589h-2.759l-1.728-3.124h-0.266h-2.193v3.124h-2.393v-10.8h4.586
		c1.417,0,2.514,0.327,3.29,0.98c0.774,0.654,1.163,1.567,1.163,2.742C408.025,20.803,407.848,21.518,407.493,22.104z
		 M401.379,21.988h2.193c0.687,0,1.218-0.166,1.595-0.499c0.377-0.332,0.565-0.808,0.565-1.429c0-0.62-0.188-1.091-0.565-1.413
		c-0.377-0.321-0.908-0.481-1.595-0.481h-2.193V21.988z"/>
</g>
<g>
	<rect x="102.583" y="63.946" style="fill:none;" width="290.75" height="25.387"/>
	<path style="fill:#5F6BF1;" d="M104.277,64.87h3.476v12.364h6.6v3.036h-10.076V64.87z"/>
	<path style="fill:#5F6BF1;" d="M125.782,69.975c0.99,1.1,1.485,2.633,1.485,4.598c0,0.353-0.008,0.624-0.022,0.814h-8.492
		c0.19,0.748,0.557,1.331,1.1,1.749c0.542,0.418,1.195,0.627,1.958,0.627c0.557,0,1.092-0.106,1.606-0.319
		c0.513-0.212,0.975-0.524,1.386-0.935l1.782,1.804c-0.602,0.675-1.331,1.191-2.189,1.551s-1.815,0.539-2.871,0.539
		c-1.247,0-2.335-0.249-3.267-0.748c-0.931-0.498-1.65-1.202-2.156-2.111c-0.506-0.91-0.759-1.958-0.759-3.146
		c0-1.202,0.256-2.262,0.77-3.179c0.513-0.917,1.232-1.628,2.156-2.134c0.924-0.507,1.98-0.76,3.168-0.76
		C123.343,68.324,124.792,68.874,125.782,69.975z M124.077,73.385c-0.03-0.777-0.279-1.4-0.748-1.87
		c-0.47-0.47-1.093-0.704-1.87-0.704c-0.733,0-1.346,0.231-1.837,0.693c-0.492,0.462-0.803,1.089-0.935,1.881H124.077z"/>
	<path style="fill:#5F6BF1;" d="M136.353,80.271v-1.386c-0.396,0.498-0.91,0.88-1.54,1.144c-0.631,0.265-1.357,0.396-2.178,0.396
		c-1.247,0-2.237-0.341-2.97-1.023c-0.734-0.682-1.1-1.573-1.1-2.673c0-1.114,0.392-1.983,1.177-2.607
		c0.785-0.623,1.896-0.941,3.333-0.957h3.256v-0.22c0-0.63-0.209-1.118-0.627-1.463c-0.418-0.345-1.03-0.517-1.837-0.517
		c-1.1,0-2.273,0.345-3.52,1.033l-1.056-2.331c0.938-0.47,1.818-0.814,2.64-1.034c0.821-0.221,1.724-0.33,2.706-0.33
		c1.584,0,2.813,0.374,3.685,1.122s1.316,1.789,1.331,3.124l0.022,7.722H136.353z M135.407,77.498
		c0.513-0.337,0.821-0.762,0.924-1.275v-1.056h-2.662c-0.66,0-1.148,0.106-1.463,0.318c-0.316,0.213-0.473,0.554-0.473,1.023
		c0,0.454,0.165,0.817,0.495,1.089c0.33,0.271,0.781,0.407,1.353,0.407C134.285,78.005,134.893,77.836,135.407,77.498z"/>
	<path style="fill:#5F6BF1;" d="M147.595,68.896c0.66-0.381,1.43-0.579,2.31-0.594v3.189c-0.118-0.014-0.293-0.021-0.528-0.021
		c-1.042,0-1.866,0.282-2.475,0.847c-0.609,0.564-0.913,1.316-0.913,2.255v5.698h-3.388V68.435h3.388v2.134
		C146.399,69.835,146.935,69.278,147.595,68.896z"/>
	<path style="fill:#5F6BF1;" d="M162.39,69.534c0.784,0.822,1.177,1.922,1.177,3.301v7.436h-3.388v-6.446
		c0-0.748-0.209-1.338-0.627-1.771c-0.418-0.433-0.986-0.649-1.705-0.649c-0.836,0.015-1.496,0.305-1.98,0.869
		c-0.484,0.564-0.726,1.287-0.726,2.167v5.83h-3.388V68.435h3.388v2.068c0.821-1.438,2.185-2.171,4.092-2.2
		C160.553,68.303,161.604,68.713,162.39,69.534z"/>
	<path style="fill:#5F6BF1;" d="M168.659,77.454c0.315,0.323,0.473,0.741,0.473,1.255c0,0.513-0.158,0.935-0.473,1.265
		s-0.723,0.495-1.221,0.495c-0.484,0-0.888-0.169-1.21-0.506c-0.323-0.338-0.484-0.756-0.484-1.254c0-0.514,0.161-0.932,0.484-1.255
		c0.323-0.322,0.726-0.483,1.21-0.483C167.937,76.971,168.344,77.132,168.659,77.454z"/>
	<path style="fill:#5F6BF1;" d="M176.876,64.87h3.476v15.4h-3.476V64.87z"/>
	<path style="fill:#5F6BF1;" d="M194.333,69.534c0.784,0.822,1.177,1.922,1.177,3.301v7.436h-3.388v-6.446
		c0-0.748-0.209-1.338-0.627-1.771c-0.418-0.433-0.986-0.649-1.705-0.649c-0.836,0.015-1.496,0.305-1.98,0.869
		c-0.484,0.564-0.726,1.287-0.726,2.167v5.83h-3.388V68.435h3.388v2.068c0.821-1.438,2.185-2.171,4.092-2.2
		C192.496,68.303,193.548,68.713,194.333,69.534z"/>
	<path style="fill:#5F6BF1;" d="M196.522,68.456l3.498-0.021l2.794,8.624l2.772-8.624h3.366l-4.466,11.836h-3.476L196.522,68.456z"
		/>
	<path style="fill:#5F6BF1;" d="M219.479,69.975c0.99,1.1,1.485,2.633,1.485,4.598c0,0.353-0.008,0.624-0.022,0.814h-8.492
		c0.19,0.748,0.557,1.331,1.1,1.749c0.542,0.418,1.195,0.627,1.958,0.627c0.558,0,1.093-0.106,1.606-0.319
		c0.513-0.212,0.975-0.524,1.386-0.935l1.782,1.804c-0.602,0.675-1.331,1.191-2.189,1.551s-1.815,0.539-2.871,0.539
		c-1.247,0-2.335-0.249-3.267-0.748c-0.931-0.498-1.65-1.202-2.156-2.111c-0.506-0.91-0.759-1.958-0.759-3.146
		c0-1.202,0.256-2.262,0.77-3.179c0.513-0.917,1.232-1.628,2.156-2.134c0.924-0.507,1.98-0.76,3.168-0.76
		C217.04,68.324,218.489,68.874,219.479,69.975z M217.773,73.385c-0.029-0.777-0.278-1.4-0.748-1.87
		c-0.469-0.47-1.093-0.704-1.869-0.704c-0.734,0-1.346,0.231-1.837,0.693c-0.492,0.462-0.803,1.089-0.935,1.881H217.773z"/>
	<path style="fill:#5F6BF1;" d="M228.729,71.063c-0.631-0.198-1.195-0.297-1.694-0.297c-0.41,0-0.74,0.073-0.989,0.22
		c-0.25,0.146-0.374,0.367-0.374,0.66c0,0.323,0.168,0.572,0.506,0.748c0.337,0.176,0.887,0.374,1.649,0.594
		c0.837,0.25,1.525,0.495,2.068,0.737s1.012,0.602,1.408,1.078c0.396,0.477,0.594,1.104,0.594,1.881
		c0,1.174-0.451,2.087-1.353,2.739c-0.902,0.652-2.058,0.979-3.465,0.979c-0.969,0-1.9-0.143-2.795-0.429s-1.672-0.693-2.331-1.221
		l1.1-2.288c0.602,0.469,1.272,0.832,2.013,1.089s1.441,0.385,2.102,0.385c0.454,0,0.817-0.077,1.089-0.231
		c0.271-0.153,0.407-0.385,0.407-0.692c0-0.337-0.173-0.602-0.518-0.792s-0.898-0.396-1.661-0.616
		c-0.807-0.234-1.478-0.469-2.013-0.704c-0.535-0.234-0.994-0.59-1.375-1.066c-0.382-0.477-0.572-1.097-0.572-1.859
		c0-1.173,0.44-2.082,1.32-2.729c0.88-0.645,1.994-0.968,3.344-0.968c0.807,0,1.613,0.114,2.42,0.341
		c0.807,0.228,1.54,0.554,2.2,0.979l-1.166,2.31C229.998,71.544,229.36,71.262,228.729,71.063z"/>
	<path style="fill:#5F6BF1;" d="M241.489,79.61c-0.44,0.264-0.928,0.466-1.463,0.605c-0.536,0.139-1.075,0.209-1.617,0.209
		c-1.1,0-1.995-0.315-2.684-0.946c-0.69-0.631-1.034-1.532-1.034-2.706v-5.478h-1.65v-2.332h1.65v-3.257h3.366v3.257h3.212v2.354
		h-3.212V76.2c0,0.91,0.358,1.364,1.077,1.364c0.499,0,1.049-0.146,1.65-0.44L241.489,79.61z"/>
	<path style="fill:#5F6BF1;" d="M245.702,77.454c0.315,0.323,0.473,0.741,0.473,1.255c0,0.513-0.157,0.935-0.473,1.265
		s-0.723,0.495-1.221,0.495c-0.484,0-0.888-0.169-1.21-0.506c-0.323-0.338-0.484-0.756-0.484-1.254c0-0.514,0.161-0.932,0.484-1.255
		c0.322-0.322,0.726-0.483,1.21-0.483C244.979,76.971,245.387,77.132,245.702,77.454z"/>
	<path style="fill:#5F6BF1;" d="M253.919,64.87h3.476v12.364h6.6v3.036h-10.075V64.87z"/>
	<path style="fill:#5F6BF1;" d="M275.423,69.975c0.99,1.1,1.485,2.633,1.485,4.598c0,0.353-0.008,0.624-0.022,0.814h-8.491
		c0.19,0.748,0.557,1.331,1.1,1.749c0.542,0.418,1.195,0.627,1.958,0.627c0.558,0,1.093-0.106,1.606-0.319
		c0.513-0.212,0.975-0.524,1.386-0.935l1.782,1.804c-0.602,0.675-1.331,1.191-2.189,1.551s-1.815,0.539-2.871,0.539
		c-1.247,0-2.336-0.249-3.267-0.748c-0.932-0.498-1.65-1.202-2.156-2.111c-0.506-0.91-0.759-1.958-0.759-3.146
		c0-1.202,0.256-2.262,0.77-3.179s1.232-1.628,2.156-2.134c0.924-0.507,1.98-0.76,3.168-0.76
		C272.984,68.324,274.434,68.874,275.423,69.975z M273.718,73.385c-0.029-0.777-0.278-1.4-0.748-1.87
		c-0.469-0.47-1.093-0.704-1.869-0.704c-0.734,0-1.347,0.231-1.838,0.693s-0.803,1.089-0.935,1.881H273.718z"/>
	<path style="fill:#5F6BF1;" d="M290.218,68.435v10.736c0,1.114-0.264,2.086-0.792,2.915c-0.527,0.828-1.269,1.466-2.222,1.913
		c-0.954,0.447-2.054,0.672-3.3,0.672c-0.969,0-1.889-0.14-2.762-0.418c-0.872-0.279-1.668-0.66-2.387-1.145l1.254-2.376
		c1.114,0.792,2.34,1.188,3.674,1.188c0.969,0,1.738-0.239,2.311-0.716s0.857-1.118,0.857-1.925v-1.342
		c-0.396,0.558-0.895,0.982-1.496,1.276c-0.602,0.293-1.29,0.439-2.067,0.439c-1.012,0-1.911-0.238-2.695-0.715
		s-1.394-1.147-1.826-2.013s-0.648-1.862-0.648-2.992c0-1.114,0.216-2.094,0.648-2.938c0.433-0.843,1.042-1.499,1.826-1.969
		c0.784-0.469,1.684-0.704,2.695-0.704c0.763,0,1.444,0.15,2.046,0.451s1.107,0.723,1.518,1.265v-1.605H290.218z M286.082,76.233
		c0.513-0.564,0.77-1.302,0.77-2.211s-0.257-1.65-0.77-2.222c-0.514-0.572-1.181-0.858-2.002-0.858s-1.489,0.286-2.002,0.858
		c-0.514,0.571-0.777,1.313-0.792,2.222c0.015,0.909,0.274,1.646,0.781,2.211c0.506,0.564,1.177,0.847,2.013,0.847
		C284.901,77.08,285.568,76.798,286.082,76.233z"/>
	<path style="fill:#5F6BF1;" d="M300.184,80.271v-1.386c-0.396,0.498-0.91,0.88-1.54,1.144c-0.631,0.265-1.356,0.396-2.178,0.396
		c-1.247,0-2.237-0.341-2.971-1.023c-0.733-0.682-1.1-1.573-1.1-2.673c0-1.114,0.393-1.983,1.177-2.607
		c0.784-0.623,1.896-0.941,3.333-0.957h3.256v-0.22c0-0.63-0.209-1.118-0.627-1.463s-1.03-0.517-1.837-0.517
		c-1.1,0-2.273,0.345-3.52,1.033l-1.057-2.331c0.938-0.47,1.818-0.814,2.641-1.034c0.821-0.221,1.723-0.33,2.706-0.33
		c1.584,0,2.812,0.374,3.685,1.122c0.872,0.748,1.316,1.789,1.331,3.124l0.022,7.722H300.184z M299.237,77.498
		c0.514-0.337,0.821-0.762,0.924-1.275v-1.056h-2.662c-0.659,0-1.147,0.106-1.463,0.318c-0.315,0.213-0.473,0.554-0.473,1.023
		c0,0.454,0.165,0.817,0.495,1.089s0.781,0.407,1.353,0.407C298.115,78.005,298.724,77.836,299.237,77.498z"/>
	<path style="fill:#5F6BF1;" d="M306.542,63.946h3.388v16.324h-3.388V63.946z"/>
</g>
</svg>
